<?xml version="1.0" standalone="no"?>
<!DOCTYPE svg PUBLIC "-//W3C//DTD SVG 20010904//EN"
 "http://www.w3.org/TR/2001/REC-SVG-20010904/DTD/svg10.dtd">
<svg version="1.0" xmlns="http://www.w3.org/2000/svg"
 width="1080.000000pt" height="1280.000000pt" viewBox="0 0 1080.000000 1280.000000"
 preserveAspectRatio="xMidYMid meet">
<metadata>
Created by potrace 1.15, written by Peter Selinger 2001-2017
</metadata>
<g transform="translate(0.000000,1280.000000) scale(0.100000,-0.100000)"
fill="#9c27b0" stroke="none">
<path d="M4140 11810 l0 -990 -990 0 -990 0 0 -1260 0 -1260 990 0 990 0 0
-995 0 -995 1260 0 1260 0 0 995 0 995 990 0 990 0 0 1260 0 1260 -990 0 -990
0 0 990 0 990 -1260 0 -1260 0 0 -990z"/>
<path d="M480 7570 c-175 -27 -342 -148 -419 -304 -64 -130 -61 -35 -61 -1761
0 -1012 4 -1602 10 -1660 33 -288 126 -542 286 -782 41 -62 109 -149 152 -195
213 -228 942 -1000 1377 -1462 556 -588 573 -607 614 -690 58 -118 64 -157 68
-448 l5 -268 1015 0 1014 0 -4 632 c-4 687 -5 706 -64 892 -49 155 -111 273
-219 411 -34 44 -609 629 -1277 1301 -1107 1112 -1222 1224 -1285 1257 -274
144 -601 -19 -653 -325 -24 -142 23 -275 144 -404 39 -43 306 -328 591 -633
285 -306 543 -588 573 -627 146 -195 219 -382 237 -611 l6 -73 -183 0 -183 0
-11 94 c-14 114 -53 213 -126 319 -29 41 -331 381 -671 755 -384 421 -634 704
-658 743 -131 217 -143 498 -31 724 37 74 124 186 185 237 58 50 169 124 199
133 19 6 20 28 17 1148 l-3 1142 -23 67 c-31 91 -112 210 -181 264 -125 100
-292 146 -441 124z"/>
<path d="M10165 7569 c-178 -22 -334 -129 -423 -289 -71 -129 -66 -38 -70
-1307 -3 -1120 -2 -1142 17 -1148 69 -21 230 -150 295 -234 107 -139 155 -268
163 -436 7 -162 -26 -295 -108 -431 -19 -30 -306 -353 -638 -717 -332 -364
-624 -687 -648 -717 -97 -120 -156 -260 -168 -392 l-7 -78 -185 0 -184 0 6 73
c20 232 92 417 238 611 30 39 320 356 645 704 644 689 637 681 662 825 51 290
-220 559 -513 509 -154 -27 -60 59 -1406 -1290 -673 -675 -1250 -1260 -1283
-1301 -111 -139 -170 -245 -223 -404 -67 -203 -68 -214 -72 -914 l-4 -633
1014 0 1015 0 5 267 c4 293 11 335 68 449 17 34 52 86 77 117 26 30 445 477
932 993 487 517 925 981 973 1033 246 264 404 612 447 986 6 58 10 648 10
1660 0 1369 -2 1578 -15 1634 -67 281 -335 467 -620 430z"/>
</g>
</svg>
